<svg id="Layer_5" enable-background="new 0 0 64 64" height="512" viewBox="0 0 64 64" width="512" xmlns="http://www.w3.org/2000/svg"><path d="m25 19c0-3.309-2.691-6-6-6s-6 2.691-6 6 2.691 6 6 6 6-2.691 6-6zm-10 0c0-2.206 1.794-4 4-4s4 1.794 4 4-1.794 4-4 4-4-1.794-4-4z"/><path d="m49 36c0-1.858-1.279-3.411-3-3.858v-6.142h-2v6.142c-1.721.447-3 2-3 3.858 0 2.206 1.794 4 4 4 .74 0 1.424-.215 2.019-.567l2.274 2.274 1.414-1.414-2.274-2.274c.352-.595.567-1.279.567-2.019zm-4 2c-1.103 0-2-.897-2-2s.897-2 2-2 2 .897 2 2-.897 2-2 2z"/><path d="m45 18c-2.876 0-5.586.695-8 1.899v-4.691l-2.635-.62c-.332-1.159-.795-2.275-1.381-3.332l1.426-2.302-5.363-5.363-2.303 1.425c-1.056-.586-2.172-1.049-3.332-1.381l-.62-2.635h-7.584l-.62 2.634c-1.16.333-2.276.795-3.332 1.381l-2.303-1.424-5.363 5.363 1.426 2.302c-.586 1.057-1.049 2.173-1.381 3.332l-2.635.62v7.584l2.635.62c.332 1.159.795 2.275 1.381 3.332l-1.426 2.302 4.543 4.542c-.083.459-.133.93-.133 1.412 0 2.78 1.427 5.231 3.585 6.665-6.123 1.89-10.585 7.6-10.585 14.335v3c0 2.206 1.794 4 4 4h8.5c.979 0 1.864-.403 2.5-1.053.636.65 1.521 1.053 2.5 1.053h8.5c2.206 0 4-1.794 4-4v-3c0-6.735-4.462-12.445-10.585-14.335 2.158-1.434 3.585-3.885 3.585-6.665 0-.284-.016-.564-.045-.84.969-.315 1.911-.69 2.789-1.176l.484.299c-.136.889-.228 1.791-.228 2.717 0 9.925 8.075 18 18 18s18-8.075 18-18-8.075-18-18-18zm15.949 19c-.228 3.658-1.683 6.981-3.968 9.568l-2.789-2.789-1.414 1.414 2.789 2.789c-2.587 2.284-5.91 3.74-9.567 3.967v-3.949h-2v3.949c-3.658-.228-6.981-1.683-9.567-3.967l2.789-2.789-1.414-1.414-2.789 2.789c-2.285-2.587-3.74-5.91-3.968-9.568h3.949v-2h-3.949c.228-3.658 1.683-6.981 3.968-9.568l2.789 2.789 1.414-1.414-2.789-2.789c2.587-2.284 5.91-3.74 9.567-3.967v3.949h2v-3.949c3.658.228 6.981 1.683 9.567 3.967l-2.789 2.789 1.414 1.414 2.789-2.789c2.285 2.587 3.74 5.91 3.968 9.568h-3.949v2zm-41.457 6.49-3.492 3.991-3.492-3.991c1.113-.311 2.281-.49 3.492-.49s2.379.179 3.492.49zm9.508 12.51v3c0 1.103-.897 2-2 2h-8.5c-.827 0-1.5-.673-1.5-1.5s.673-1.5 1.5-1.5h7.5v-2h-2v-4h-2v4h-3.5c-.979 0-1.864.403-2.5 1.053-.636-.65-1.521-1.053-2.5-1.053h-3.5v-4h-2v4h-2v2h7.5c.827 0 1.5.673 1.5 1.5s-.673 1.5-1.5 1.5h-8.5c-1.103 0-2-.897-2-2v-3c0-5.202 3.078-9.687 7.502-11.763l5.498 6.282 5.498-6.282c4.424 2.076 7.502 6.561 7.502 11.763zm-13-15c-3.309 0-6-2.691-6-6s2.691-6 6-6 6 2.691 6 6-2.691 6-6 6zm-7-22c0-5.514 4.486-10 10-10s10 4.486 10 10c0 4.792-3.336 8.827-7.989 9.773-1.372-1.106-3.114-1.773-5.011-1.773-.841 0-1.65.132-2.412.373-2.833-1.837-4.588-4.995-4.588-8.373zm17.766 11.646-.523.318c-.857.52-1.778.946-2.745 1.272-.237-.641-.549-1.245-.934-1.797 4.974-1.529 8.436-6.091 8.436-11.439 0-6.617-5.383-12-12-12s-12 5.383-12 12c0 3.656 1.705 7.107 4.532 9.367-1.148.776-2.077 1.846-2.696 3.095l-2.71-2.71 1.229-1.986-.318-.524c-.736-1.215-1.281-2.528-1.617-3.904l-.146-.595-2.274-.535v-4.416l2.273-.535.146-.595c.336-1.375.881-2.689 1.617-3.904l.318-.524-1.229-1.986 3.123-3.123 1.986 1.229.523-.318c1.214-.737 2.527-1.281 3.904-1.619l.595-.146.536-2.271h4.416l.535 2.272.595.146c1.377.337 2.69.882 3.904 1.619l.523.318 1.986-1.229 3.123 3.123-1.229 1.986.318.524c.736 1.215 1.281 2.528 1.617 3.904l.146.595 2.274.534v4.252c-3.533 2.37-6.167 5.961-7.331 10.16z"/></svg>